<svg width="162px" height="162px" viewBox="0 0 162 162" version="1.1" xmlns="http://www.w3.org/2000/svg" xmlns:xlink="http://www.w3.org/1999/xlink">
    <g id="fail" stroke="none" stroke-width="1" fill="none" fill-rule="evenodd">
		<path d="M162,82 C162,36.264 125.736,0 80,0 C36.264,0 0,36.264 0,82 C0,125.736 36.264,162 80,162 C125.736,162 162,125.736 162,82 Z" id="Fill-" fill="#F76260"></path>
		<path d="M76.9030883,43.5483871 L85.0969117,43.5483871 C86.2001535,43.5483871 87.0638538,44.4396465 87.0232444,45.5390706 L85.1015246,97.5661201 C85.0808747,98.1251789 84.618243,98.5680566 84.0677372,98.5680566 L77.9322628,98.5680566 C77.3841151,98.5680566 76.9189146,98.1194744 76.8984754,97.5661201 L74.9767556,45.5390706 C74.9359709,44.4348996 75.7985947,43.5483871 76.9030883,43.5483871 Z M81,118.451613 C77.6328446,118.451613 74.9032258,115.721994 74.9032258,112.354839 C74.9032258,108.987683 77.6328446,106.258065 81,106.258065 C84.3671554,106.258065 87.0967742,108.987683 87.0967742,112.354839 C87.0967742,115.721994 84.3671554,118.451613 81,118.451613 Z" id="Path-" fill="#FFFFFF"></path>
    </g>
</svg>