<svg width="162px" height="162px" viewBox="0 0 162 162" version="1.1" xmlns="http://www.w3.org/2000/svg" xmlns:xlink="http://www.w3.org/1999/xlink">
    <g id="succ" stroke="none" stroke-width="1" fill="none" fill-rule="evenodd">
		<path d="M162,82 C162,36.264 125.736,0 80,0 C36.264,0 0,36.264 0,82 C0,125.736 36.264,162 80,162 C125.736,162 162,125.736 162,82 Z" id="Fill-3" fill="#E1AF3D"></path>
		<path d="M40.7016918,88.5951795 C40.3141581,88.1941013 40.265948,87.5070929 40.5947867,87.0596483 L44.1014904,82.2881439 C44.429982,81.8411717 45.0503227,81.7501846 45.4924285,82.0890334 L67.029093,98.5956516 C67.4687953,98.9326581 68.1717602,98.9171803 68.5923298,98.5668118 L121.321625,54.6390442 C121.745274,54.2861098 122.411504,54.3187904 122.801974,54.7044166 L126.071724,57.9336112 C126.465649,58.3226497 126.467759,58.9502283 126.071295,59.3404081 L68.5372088,115.962543 C68.1430471,116.350457 67.5110448,116.341531 67.1218242,115.938707 L40.7016918,88.5951795 Z" id="Fill-36" fill="#FFFFFF"></path>
    </g>
</svg>