<svg width="162px" height="162px" viewBox="0 0 162 162" version="1.1" xmlns="http://www.w3.org/2000/svg" xmlns:xlink="http://www.w3.org/1999/xlink">
    <g id="wait" stroke="none" stroke-width="1" fill="none" fill-rule="evenodd">
		<path d="M162,82 C162,36.264 125.736,0 80,0 C36.264,0 0,36.264 0,82 C0,125.736 36.264,162 80,162 C125.736,162 162,125.736 162,82 Z" id="Fill-" fill="#1991EC"></path>
		<path d="M86.5870518,94.3259342 L84.50588,42.9903611 C84.4838927,42.4480097 84.0210509,42 83.4725112,42 L77.3589492,42 C76.8127591,42 76.3477545,42.4433998 76.3255804,42.9903611 L74.0165806,99.9456889 C73.9902116,100.596126 74.2790479,101.174376 74.7473784,101.538546 C74.93997,101.902591 75.2483519,102.210246 75.6511532,102.402406 L113.187813,120.309616 C113.686443,120.547492 114.308197,120.35042 114.58387,119.872941 L116.825571,115.990201 C117.102022,115.511374 116.956846,114.876714 116.50305,114.569637 L86.5870518,94.3259342 Z" id="Combined-Shape" fill="#FFFFFF"></path>
    </g>
</svg>